<svg xmlns="http://www.w3.org/2000/svg" xmlns:xlink="http://www.w3.org/1999/xlink" contentStyleType="text/css" data-diagram-type="CLASS" height="246px" preserveAspectRatio="none" style="width:684px;height:246px;background:#FFFFFF;" version="1.1" viewBox="0 0 684 246" width="684px" zoomAndPan="magnify"><defs/><g><!--class Entity01--><g class="entity" data-entity="Entity01" data-source-line="2" data-uid="ent0002" id="entity_Entity01"><rect fill="#F1F1F1" height="124.2717" rx="2.5" ry="2.5" style="stroke:#181818;stroke-width:0.5;" width="309.9049" x="7" y="7"/><ellipse cx="131.0466" cy="23" fill="#ADD1B2" rx="11" ry="11" style="stroke:#181818;stroke-width:1;"/><path d="M135.1559,29 L127.4372,29 L127.4372,16.6094 L135.1559,16.6094 L135.1559,18.7656 L129.8903,18.7656 L129.8903,21.4375 L134.6559,21.4375 L134.6559,23.5938 L129.8903,23.5938 L129.8903,26.8438 L135.1559,26.8438 L135.1559,29 Z " fill="#000000"/><text fill="#000000" font-family="sans-serif" font-size="14" lengthAdjust="spacing" textLength="53.3118" x="151.5466" y="28.432">Entity01</text><line style="stroke:#181818;stroke-width:0.5;" x1="8" x2="315.9049" y1="39" y2="39"/><ellipse cx="18" cy="54.034" fill="#000000" rx="3" ry="3" style="stroke:#000000;stroke-width:1;"/><text fill="#000000" font-family="sans-serif" font-size="14" lengthAdjust="spacing" textLength="283.9049" x="27" y="57.9659">identifying_attribute : number &#171;generated&#187;</text><line style="stroke:#181818;stroke-width:1;" x1="8" x2="315.9049" y1="66.0679" y2="66.0679"/><ellipse cx="18" cy="81.1019" fill="#000000" rx="3" ry="3" style="stroke:#000000;stroke-width:1;"/><text fill="#000000" font-family="sans-serif" font-size="14" lengthAdjust="spacing" textLength="196.3633" x="27" y="85.0339">mandatory_attribute: number</text><text fill="#000000" font-family="sans-serif" font-size="14" lengthAdjust="spacing" textLength="220.0232" x="27" y="104.1018">optional_attribute1: number &#171;FK&#187;</text><text fill="#000000" font-family="sans-serif" font-size="14" lengthAdjust="spacing" textLength="171.9334" x="27" y="123.1697">optional_attribute2: string</text></g><!--class Entity02--><g class="entity" data-entity="Entity02" data-source-line="9" data-uid="ent0003" id="entity_Entity02"><rect fill="#F1F1F1" height="48" rx="2.5" ry="2.5" style="stroke:#181818;stroke-width:0.5;" width="85.3118" x="119.5" y="191"/><ellipse cx="134.5" cy="207" fill="#ADD1B2" rx="11" ry="11" style="stroke:#181818;stroke-width:1;"/><path d="M138.6094,213 L130.8906,213 L130.8906,200.6094 L138.6094,200.6094 L138.6094,202.7656 L133.3438,202.7656 L133.3438,205.4375 L138.1094,205.4375 L138.1094,207.5938 L133.3438,207.5938 L133.3438,210.8438 L138.6094,210.8438 L138.6094,213 Z " fill="#000000"/><text fill="#000000" font-family="sans-serif" font-size="14" lengthAdjust="spacing" textLength="53.3118" x="148.5" y="212.432">Entity02</text><line style="stroke:#181818;stroke-width:0.5;" x1="120.5" x2="203.8118" y1="223" y2="223"/><line style="stroke:#181818;stroke-width:0.5;" x1="120.5" x2="203.8118" y1="231" y2="231"/></g><!--class Entity03--><g class="entity" data-entity="Entity03" data-source-line="10" data-uid="ent0004" id="entity_Entity03"><rect fill="#F1F1F1" height="48" rx="2.5" ry="2.5" style="stroke:#181818;stroke-width:0.5;" width="85.3118" x="352.5" y="45"/><ellipse cx="367.5" cy="61" fill="#ADD1B2" rx="11" ry="11" style="stroke:#181818;stroke-width:1;"/><path d="M371.6094,67 L363.8906,67 L363.8906,54.6094 L371.6094,54.6094 L371.6094,56.7656 L366.3438,56.7656 L366.3438,59.4375 L371.1094,59.4375 L371.1094,61.5938 L366.3438,61.5938 L366.3438,64.8438 L371.6094,64.8438 L371.6094,67 Z " fill="#000000"/><text fill="#000000" font-family="sans-serif" font-size="14" lengthAdjust="spacing" textLength="53.3118" x="381.5" y="66.432">Entity03</text><line style="stroke:#181818;stroke-width:0.5;" x1="353.5" x2="436.8118" y1="77" y2="77"/><line style="stroke:#181818;stroke-width:0.5;" x1="353.5" x2="436.8118" y1="85" y2="85"/></g><!--class Entity04--><g class="entity" data-entity="Entity04" data-source-line="11" data-uid="ent0005" id="entity_Entity04"><rect fill="#F1F1F1" height="48" rx="2.5" ry="2.5" style="stroke:#181818;stroke-width:0.5;" width="85.3118" x="352.5" y="191"/><ellipse cx="367.5" cy="207" fill="#ADD1B2" rx="11" ry="11" style="stroke:#181818;stroke-width:1;"/><path d="M371.6094,213 L363.8906,213 L363.8906,200.6094 L371.6094,200.6094 L371.6094,202.7656 L366.3438,202.7656 L366.3438,205.4375 L371.1094,205.4375 L371.1094,207.5938 L366.3438,207.5938 L366.3438,210.8438 L371.6094,210.8438 L371.6094,213 Z " fill="#000000"/><text fill="#000000" font-family="sans-serif" font-size="14" lengthAdjust="spacing" textLength="53.3118" x="381.5" y="212.432">Entity04</text><line style="stroke:#181818;stroke-width:0.5;" x1="353.5" x2="436.8118" y1="223" y2="223"/><line style="stroke:#181818;stroke-width:0.5;" x1="353.5" x2="436.8118" y1="231" y2="231"/></g><!--class Entity05--><g class="entity" data-entity="Entity05" data-source-line="12" data-uid="ent0006" id="entity_Entity05"><rect fill="#F1F1F1" height="48" rx="2.5" ry="2.5" style="stroke:#181818;stroke-width:0.5;" width="85.3118" x="472.5" y="45"/><ellipse cx="487.5" cy="61" fill="#ADD1B2" rx="11" ry="11" style="stroke:#181818;stroke-width:1;"/><path d="M491.6094,67 L483.8906,67 L483.8906,54.6094 L491.6094,54.6094 L491.6094,56.7656 L486.3438,56.7656 L486.3438,59.4375 L491.1094,59.4375 L491.1094,61.5938 L486.3438,61.5938 L486.3438,64.8438 L491.6094,64.8438 L491.6094,67 Z " fill="#000000"/><text fill="#000000" font-family="sans-serif" font-size="14" lengthAdjust="spacing" textLength="53.3118" x="501.5" y="66.432">Entity05</text><line style="stroke:#181818;stroke-width:0.5;" x1="473.5" x2="556.8118" y1="77" y2="77"/><line style="stroke:#181818;stroke-width:0.5;" x1="473.5" x2="556.8118" y1="85" y2="85"/></g><!--class Entity06--><g class="entity" data-entity="Entity06" data-source-line="13" data-uid="ent0007" id="entity_Entity06"><rect fill="#F1F1F1" height="48" rx="2.5" ry="2.5" style="stroke:#181818;stroke-width:0.5;" width="85.3118" x="472.5" y="191"/><ellipse cx="487.5" cy="207" fill="#ADD1B2" rx="11" ry="11" style="stroke:#181818;stroke-width:1;"/><path d="M491.6094,213 L483.8906,213 L483.8906,200.6094 L491.6094,200.6094 L491.6094,202.7656 L486.3438,202.7656 L486.3438,205.4375 L491.1094,205.4375 L491.1094,207.5938 L486.3438,207.5938 L486.3438,210.8438 L491.6094,210.8438 L491.6094,213 Z " fill="#000000"/><text fill="#000000" font-family="sans-serif" font-size="14" lengthAdjust="spacing" textLength="53.3118" x="501.5" y="212.432">Entity06</text><line style="stroke:#181818;stroke-width:0.5;" x1="473.5" x2="556.8118" y1="223" y2="223"/><line style="stroke:#181818;stroke-width:0.5;" x1="473.5" x2="556.8118" y1="231" y2="231"/></g><!--class Entity07--><g class="entity" data-entity="Entity07" data-source-line="14" data-uid="ent0008" id="entity_Entity07"><rect fill="#F1F1F1" height="48" rx="2.5" ry="2.5" style="stroke:#181818;stroke-width:0.5;" width="85.3118" x="592.5" y="45"/><ellipse cx="607.5" cy="61" fill="#ADD1B2" rx="11" ry="11" style="stroke:#181818;stroke-width:1;"/><path d="M611.6094,67 L603.8906,67 L603.8906,54.6094 L611.6094,54.6094 L611.6094,56.7656 L606.3438,56.7656 L606.3438,59.4375 L611.1094,59.4375 L611.1094,61.5938 L606.3438,61.5938 L606.3438,64.8438 L611.6094,64.8438 L611.6094,67 Z " fill="#000000"/><text fill="#000000" font-family="sans-serif" font-size="14" lengthAdjust="spacing" textLength="53.3118" x="621.5" y="66.432">Entity07</text><line style="stroke:#181818;stroke-width:0.5;" x1="593.5" x2="676.8118" y1="77" y2="77"/><line style="stroke:#181818;stroke-width:0.5;" x1="593.5" x2="676.8118" y1="85" y2="85"/></g><!--class Entity08--><g class="entity" data-entity="Entity08" data-source-line="15" data-uid="ent0009" id="entity_Entity08"><rect fill="#F1F1F1" height="48" rx="2.5" ry="2.5" style="stroke:#181818;stroke-width:0.5;" width="85.3118" x="592.5" y="191"/><ellipse cx="607.5" cy="207" fill="#ADD1B2" rx="11" ry="11" style="stroke:#181818;stroke-width:1;"/><path d="M611.6094,213 L603.8906,213 L603.8906,200.6094 L611.6094,200.6094 L611.6094,202.7656 L606.3438,202.7656 L606.3438,205.4375 L611.1094,205.4375 L611.1094,207.5938 L606.3438,207.5938 L606.3438,210.8438 L611.6094,210.8438 L611.6094,213 Z " fill="#000000"/><text fill="#000000" font-family="sans-serif" font-size="14" lengthAdjust="spacing" textLength="53.3118" x="621.5" y="212.432">Entity08</text><line style="stroke:#181818;stroke-width:0.5;" x1="593.5" x2="676.8118" y1="223" y2="223"/><line style="stroke:#181818;stroke-width:0.5;" x1="593.5" x2="676.8118" y1="231" y2="231"/></g><!--link Entity01 to Entity02--><g class="link" data-entity-1="Entity01" data-entity-2="Entity02" data-source-line="16" data-uid="lnk10" id="link_Entity01_Entity02"><path codeLine="16" d="M162,139.07 C162,160.23 162,166.67 162,182.87" fill="none" id="Entity01-Entity02" style="stroke:#181818;stroke-width:1;stroke-dasharray:7.0,7.0;"/><line style="stroke:#181818;stroke-width:1;" x1="162" x2="156" y1="139.07" y2="131.07"/><line style="stroke:#181818;stroke-width:1;" x1="162" x2="168" y1="139.07" y2="131.07"/><line style="stroke:#181818;stroke-width:1;" x1="162" x2="162" y1="139.07" y2="131.07"/><line style="stroke:#181818;stroke-width:1;" x1="158" x2="166" y1="141.07" y2="141.07"/><line style="stroke:#181818;stroke-width:1;" x1="166" x2="158" y1="186.87" y2="186.87"/><line style="stroke:#181818;stroke-width:1;" x1="166" x2="158" y1="183.87" y2="183.87"/><line style="stroke:#181818;stroke-width:1;" x1="162" x2="162" y1="182.87" y2="190.87"/></g><!--link Entity03 to Entity04--><g class="link" data-entity-1="Entity03" data-entity-2="Entity04" data-source-line="17" data-uid="lnk11" id="link_Entity03_Entity04"><path codeLine="17" d="M395,111.14 C395,138.01 395,149.07 395,175.92" fill="none" id="Entity03-Entity04" style="stroke:#181818;stroke-width:1;stroke-dasharray:7.0,7.0;"/><line style="stroke:#181818;stroke-width:1;" x1="395" x2="389" y1="101.14" y2="93.14"/><line style="stroke:#181818;stroke-width:1;" x1="395" x2="401" y1="101.14" y2="93.14"/><line style="stroke:#181818;stroke-width:1;" x1="395" x2="395" y1="101.14" y2="93.14"/><ellipse cx="395" cy="107.14" fill="none" rx="4" ry="4" style="stroke:#181818;stroke-width:1;"/><line style="stroke:#181818;stroke-width:1;" x1="395" x2="395" y1="179.92" y2="190.92"/><ellipse cx="395" cy="179.92" fill="none" rx="4" ry="4" style="stroke:#181818;stroke-width:1;"/><line style="stroke:#181818;stroke-width:1;" x1="399" x2="391" y1="186.92" y2="186.92"/></g><!--link Entity05 to Entity06--><g class="link" data-entity-1="Entity05" data-entity-2="Entity06" data-source-line="18" data-uid="lnk12" id="link_Entity05_Entity06"><path codeLine="18" d="M515,101.14 C515,128.01 515,146.07 515,172.92" fill="none" id="Entity05-Entity06" style="stroke:#181818;stroke-width:1;"/><line style="stroke:#181818;stroke-width:1;" x1="511" x2="519" y1="97.14" y2="97.14"/><line style="stroke:#181818;stroke-width:1;" x1="511" x2="519" y1="100.14" y2="100.14"/><line style="stroke:#181818;stroke-width:1;" x1="515" x2="515" y1="101.14" y2="93.14"/><line style="stroke:#181818;stroke-width:1;" x1="515" x2="521" y1="182.92" y2="190.92"/><line style="stroke:#181818;stroke-width:1;" x1="515" x2="509" y1="182.92" y2="190.92"/><line style="stroke:#181818;stroke-width:1;" x1="515" x2="515" y1="182.92" y2="190.92"/><ellipse cx="515" cy="176.92" fill="none" rx="4" ry="4" style="stroke:#181818;stroke-width:1;"/></g><!--link Entity07 to Entity08--><g class="link" data-entity-1="Entity07" data-entity-2="Entity08" data-source-line="19" data-uid="lnk13" id="link_Entity07_Entity08"><path codeLine="19" d="M635,108.14 C635,135.01 635,156.07 635,182.92" fill="none" id="Entity07-Entity08" style="stroke:#181818;stroke-width:1;"/><line style="stroke:#181818;stroke-width:1;" x1="635" x2="635" y1="104.14" y2="93.14"/><ellipse cx="635" cy="104.14" fill="none" rx="4" ry="4" style="stroke:#181818;stroke-width:1;"/><line style="stroke:#181818;stroke-width:1;" x1="631" x2="639" y1="97.14" y2="97.14"/><line style="stroke:#181818;stroke-width:1;" x1="639" x2="631" y1="186.92" y2="186.92"/><line style="stroke:#181818;stroke-width:1;" x1="639" x2="631" y1="183.92" y2="183.92"/><line style="stroke:#181818;stroke-width:1;" x1="635" x2="635" y1="182.92" y2="190.92"/></g><!--SRC=[PP1F2y8W68VlVegtKn0eRVqRO-nMbwxTmvej8Nt3kSEO- -xPO3CCH7tq_RsFk8JBKpRW1uSxAYMqNH0_ITl1SLpM2VG4O0Mo-fu_EgdhAxVMo5jh1UIWMtKJ1egY5beORaLLbZv0wPXIN5VSekb2Pexu0dnRYPg_mctoq_5q7blz5wKvD7whQp94hqqZtaIyZNWNyJxYGyGPcRzbS8mv5yIJ4GPa35qmJYfmZbBiWsfoW4DAGwli0m00]--></g></svg>