<svg xmlns="http://www.w3.org/2000/svg" xmlns:xlink="http://www.w3.org/1999/xlink" contentStyleType="text/css" data-diagram-type="SEQUENCE" height="379px" preserveAspectRatio="none" style="width:485px;height:379px;background:#FFFFFF;" version="1.1" viewBox="0 0 485 379" width="485px" zoomAndPan="magnify"><defs/><g><g><title>Participant01</title><rect fill="#FFFFFF" height="185.512" style="stroke:#181818;stroke-width:1;" width="10" x="117.6326" y="100.0679"/></g><g><title>Participant02</title><rect fill="#FFFFFF" height="31.706" style="stroke:#181818;stroke-width:1;" width="10" x="228.9223" y="131.7739"/></g><rect fill="none" height="100.0999" style="stroke:#000000;stroke-width:1.5;" width="416.6888" x="61.9878" y="178.4799"/><g><title>Actor01</title><rect fill="#000000" fill-opacity="0.00000" height="211.512" width="8" x="29.4939" y="84.0679"/><line style="stroke:#181818;stroke-width:0.5;stroke-dasharray:5.0,5.0;" x1="33" x2="33" y1="84.0679" y2="295.5799"/></g><g><title>Participant01</title><rect fill="#000000" fill-opacity="0.00000" height="211.512" width="8" x="118.6326" y="84.0679"/><line style="stroke:#181818;stroke-width:0.5;stroke-dasharray:5.0,5.0;" x1="121.9878" x2="121.9878" y1="84.0679" y2="295.5799"/></g><g><title>Participant02</title><rect fill="#000000" fill-opacity="0.00000" height="211.512" width="8" x="229.9223" y="84.0679"/><line style="stroke:#181818;stroke-width:0.5;stroke-dasharray:5.0,5.0;" x1="233.2775" x2="233.2775" y1="84.0679" y2="295.5799"/></g><g><title>Database01</title><rect fill="#000000" fill-opacity="0.00000" height="211.512" width="8" x="332.599" y="84.0679"/><line style="stroke:#181818;stroke-width:0.5;stroke-dasharray:5.0,5.0;" x1="336.5672" x2="336.5672" y1="84.0679" y2="295.5799"/></g><g><title>Queue01</title><rect fill="#000000" fill-opacity="0.00000" height="211.512" width="8" x="424.6537" y="84.0679"/><line style="stroke:#181818;stroke-width:0.5;stroke-dasharray:5.0,5.0;" x1="428.6309" x2="428.6309" y1="84.0679" y2="295.5799"/></g><g class="participant participant-head" data-participant="Actor01"><text fill="#000000" font-family="sans-serif" font-size="14" lengthAdjust="spacing" textLength="50.9878" x="5" y="79.9659">Actor01</text><ellipse cx="33.4939" cy="13.5" fill="#E2E2F0" rx="8" ry="8" style="stroke:#181818;stroke-width:0.5;"/><path d="M33.4939,21.5 L33.4939,48.5 M20.4939,29.5 L46.4939,29.5 M33.4939,48.5 L20.4939,63.5 M33.4939,48.5 L46.4939,63.5" fill="none" style="stroke:#181818;stroke-width:0.5;"/></g><g class="participant participant-tail" data-participant="Actor01"><text fill="#000000" font-family="sans-serif" font-size="14" lengthAdjust="spacing" textLength="50.9878" x="5" y="309.5458">Actor01</text><ellipse cx="33.4939" cy="322.1478" fill="#E2E2F0" rx="8" ry="8" style="stroke:#181818;stroke-width:0.5;"/><path d="M33.4939,330.1478 L33.4939,357.1478 M20.4939,338.1478 L46.4939,338.1478 M33.4939,357.1478 L20.4939,372.1478 M33.4939,357.1478 L46.4939,372.1478" fill="none" style="stroke:#181818;stroke-width:0.5;"/></g><g class="participant participant-head" data-participant="Participant01"><rect fill="#E2E2F0" height="33.0679" rx="2.5" ry="2.5" style="stroke:#181818;stroke-width:0.5;" width="101.2897" x="71.9878" y="50"/><text fill="#000000" font-family="sans-serif" font-size="14" lengthAdjust="spacing" textLength="87.2897" x="78.9878" y="71.9659">Participant01</text></g><g class="participant participant-tail" data-participant="Participant01"><rect fill="#E2E2F0" height="33.0679" rx="2.5" ry="2.5" style="stroke:#181818;stroke-width:0.5;" width="101.2897" x="71.9878" y="294.5799"/><text fill="#000000" font-family="sans-serif" font-size="14" lengthAdjust="spacing" textLength="87.2897" x="78.9878" y="316.5458">Participant01</text></g><g class="participant participant-head" data-participant="Participant02"><rect fill="#E2E2F0" height="33.0679" rx="2.5" ry="2.5" style="stroke:#181818;stroke-width:0.5;" width="101.2897" x="183.2775" y="50"/><text fill="#000000" font-family="sans-serif" font-size="14" lengthAdjust="spacing" textLength="87.2897" x="190.2775" y="71.9659">Participant02</text></g><g class="participant participant-tail" data-participant="Participant02"><rect fill="#E2E2F0" height="33.0679" rx="2.5" ry="2.5" style="stroke:#181818;stroke-width:0.5;" width="101.2897" x="183.2775" y="294.5799"/><text fill="#000000" font-family="sans-serif" font-size="14" lengthAdjust="spacing" textLength="87.2897" x="190.2775" y="316.5458">Participant02</text></g><g class="participant participant-head" data-participant="Database01"><text fill="#000000" font-family="sans-serif" font-size="14" lengthAdjust="spacing" textLength="78.0637" x="294.5672" y="79.9659">Database01</text><path d="M318.599,29 C318.599,19 336.599,19 336.599,19 C336.599,19 354.599,19 354.599,29 L354.599,55 C354.599,65 336.599,65 336.599,65 C336.599,65 318.599,65 318.599,55 L318.599,29" fill="#E2E2F0" style="stroke:#181818;stroke-width:1.5;"/><path d="M318.599,29 C318.599,39 336.599,39 336.599,39 C336.599,39 354.599,39 354.599,29" fill="none" style="stroke:#181818;stroke-width:1.5;"/></g><g class="participant participant-tail" data-participant="Database01"><text fill="#000000" font-family="sans-serif" font-size="14" lengthAdjust="spacing" textLength="78.0637" x="294.5672" y="309.5458">Database01</text><path d="M318.599,323.6478 C318.599,313.6478 336.599,313.6478 336.599,313.6478 C336.599,313.6478 354.599,313.6478 354.599,323.6478 L354.599,349.6478 C354.599,359.6478 336.599,359.6478 336.599,359.6478 C336.599,359.6478 318.599,359.6478 318.599,349.6478 L318.599,323.6478" fill="#E2E2F0" style="stroke:#181818;stroke-width:1.5;"/><path d="M318.599,323.6478 C318.599,333.6478 336.599,333.6478 336.599,333.6478 C336.599,333.6478 354.599,333.6478 354.599,323.6478" fill="none" style="stroke:#181818;stroke-width:1.5;"/></g><g class="participant participant-head" data-participant="Queue01"><path d="M393.6309,55 L463.6766,55 C468.6766,55 468.6766,69.534 468.6766,69.534 C468.6766,69.534 468.6766,84.0679 463.6766,84.0679 L393.6309,84.0679 C388.6309,84.0679 388.6309,69.534 388.6309,69.534 C388.6309,69.534 388.6309,55 393.6309,55" fill="#E2E2F0" style="stroke:#181818;stroke-width:0.5;"/><path d="M463.6766,55 C458.6766,55 458.6766,69.534 458.6766,69.534 C458.6766,84.0679 463.6766,84.0679 463.6766,84.0679" fill="none" style="stroke:#181818;stroke-width:0.5;"/><text fill="#000000" font-family="sans-serif" font-size="14" lengthAdjust="spacing" textLength="60.0457" x="393.6309" y="74.9659">Queue01</text></g><g class="participant participant-tail" data-participant="Queue01"><path d="M393.6309,294.5799 L463.6766,294.5799 C468.6766,294.5799 468.6766,309.1138 468.6766,309.1138 C468.6766,309.1138 468.6766,323.6478 463.6766,323.6478 L393.6309,323.6478 C388.6309,323.6478 388.6309,309.1138 388.6309,309.1138 C388.6309,309.1138 388.6309,294.5799 393.6309,294.5799" fill="#E2E2F0" style="stroke:#181818;stroke-width:0.5;"/><path d="M463.6766,294.5799 C458.6766,294.5799 458.6766,309.1138 458.6766,309.1138 C458.6766,323.6478 463.6766,323.6478 463.6766,323.6478" fill="none" style="stroke:#181818;stroke-width:0.5;"/><text fill="#000000" font-family="sans-serif" font-size="14" lengthAdjust="spacing" textLength="60.0457" x="393.6309" y="314.5458">Queue01</text></g><g><title>Participant01</title><rect fill="#FFFFFF" height="185.512" style="stroke:#181818;stroke-width:1;" width="10" x="117.6326" y="100.0679"/></g><g><title>Participant02</title><rect fill="#FFFFFF" height="31.706" style="stroke:#181818;stroke-width:1;" width="10" x="228.9223" y="131.7739"/></g><g class="message" data-participant-1="Actor01" data-participant-2="Participant01"><polygon fill="#181818" points="105.6326,96.0679,115.6326,100.0679,105.6326,104.0679,109.6326,100.0679" style="stroke:#181818;stroke-width:1;"/><line style="stroke:#181818;stroke-width:1;stroke-dasharray:2.0,2.0;" x1="33.4939" x2="111.6326" y1="100.0679" y2="100.0679"/></g><g class="message" data-participant-1="Participant01" data-participant-2="Participant02"><polygon fill="#181818" points="216.9223,127.7739,226.9223,131.7739,216.9223,135.7739,220.9223,131.7739" style="stroke:#181818;stroke-width:1;"/><line style="stroke:#181818;stroke-width:1;" x1="127.6326" x2="222.9223" y1="131.7739" y2="131.7739"/><text fill="#000000" font-family="sans-serif" font-size="13" lengthAdjust="spacing" textLength="49.6991" x="134.6326" y="125.9649">Request</text></g><g class="message" data-participant-1="Participant02" data-participant-2="Participant01"><polygon fill="#181818" points="138.6326,159.4799,128.6326,163.4799,138.6326,167.4799,134.6326,163.4799" style="stroke:#181818;stroke-width:1;"/><line style="stroke:#181818;stroke-width:1;stroke-dasharray:2.0,2.0;" x1="132.6326" x2="232.9223" y1="163.4799" y2="163.4799"/><text fill="#000000" font-family="sans-serif" font-size="13" lengthAdjust="spacing" textLength="59.0981" x="144.6326" y="157.6709">Response</text></g><path d="M61.9878,178.4799 L124.4468,178.4799 L124.4468,188.186 L114.4468,198.186 L61.9878,198.186 L61.9878,178.4799" fill="#EEEEEE" style="stroke:#000000;stroke-width:1.5;"/><rect fill="none" height="100.0999" style="stroke:#000000;stroke-width:1.5;" width="416.6888" x="61.9878" y="178.4799"/><text fill="#000000" font-family="sans-serif" font-size="13" font-weight="bold" lengthAdjust="spacing" textLength="17.459" x="76.9878" y="193.377">alt</text><text fill="#000000" font-family="sans-serif" font-size="11" font-weight="bold" lengthAdjust="spacing" textLength="84.0834" x="139.4468" y="192.2389">[standard case]</text><g class="message" data-participant-1="Participant01" data-participant-2="Database01"><line style="stroke:#181818;stroke-width:1;" x1="334.599" x2="324.599" y1="221.892" y2="217.892"/><line style="stroke:#181818;stroke-width:1;" x1="334.599" x2="324.599" y1="221.892" y2="225.892"/><line style="stroke:#181818;stroke-width:1;" x1="127.6326" x2="335.599" y1="221.892" y2="221.892"/><text fill="#000000" font-family="sans-serif" font-size="13" lengthAdjust="spacing" textLength="54.197" x="134.6326" y="216.083">Message</text></g><line style="stroke:#000000;stroke-width:1;stroke-dasharray:2.0,2.0;" x1="61.9878" x2="478.6766" y1="230.892" y2="230.892"/><text fill="#000000" font-family="sans-serif" font-size="11" font-weight="bold" lengthAdjust="spacing" textLength="98.5483" x="66.9878" y="242.6509">[exceptional case]</text><g class="message" data-participant-1="Participant01" data-participant-2="Queue01"><line style="stroke:#181818;stroke-width:1;" x1="426.6537" x2="416.6537" y1="270.5799" y2="266.5799"/><line style="stroke:#181818;stroke-width:1;" x1="426.6537" x2="416.6537" y1="270.5799" y2="274.5799"/><line style="stroke:#181818;stroke-width:1;" x1="127.6326" x2="427.6537" y1="270.5799" y2="270.5799"/><text fill="#000000" font-family="sans-serif" font-size="13" lengthAdjust="spacing" textLength="54.197" x="134.6326" y="264.7709">Message</text></g><!--SRC=[VOx12i8m38RlVOfuybHmEueC1A-2YYyGsw25hPrB9Zw-6GoSPREKa3Rvl_zVm_KH6FGYkDGq56Lbq4dgO3_KJM5Qx2Iuq68KE7rxdOmRO6sLJPGGNYYKVV-y85ELi8KBFNjYcTUNcNvdxGo0snIPZAS5XaV16pB1OMmqbvhs1EUX3k5h0HQC7ZiFJZSCwCcpLnE06X-96Uzag5OqlHsr4bB4-XzWD9ogerzANdm0]--></g></svg>