<svg xmlns="http://www.w3.org/2000/svg" xmlns:xlink="http://www.w3.org/1999/xlink" contentStyleType="text/css" data-diagram-type="CLASS" height="354px" preserveAspectRatio="none" style="width:535px;height:354px;background:#FFFFFF;" version="1.1" viewBox="0 0 535 354" width="535px" zoomAndPan="magnify"><defs/><g><!--class Class01--><g class="entity" data-entity="Class01" data-source-line="2" data-uid="ent0002" id="entity_Class01"><rect fill="#F1F1F1" height="124.2717" rx="2.5" ry="2.5" style="stroke:#181818;stroke-width:0.5;" width="199.2633" x="203.5" y="115"/><ellipse cx="274.0107" cy="131" fill="#ADD1B2" rx="11" ry="11" style="stroke:#181818;stroke-width:1;"/><path d="M276.9795,136.6406 Q276.4014,136.9375 275.7607,137.0781 Q275.1201,137.2344 274.417,137.2344 Q271.917,137.2344 270.5889,135.5938 Q269.2764,133.9375 269.2764,130.8125 Q269.2764,127.6875 270.5889,126.0313 Q271.917,124.375 274.417,124.375 Q275.1201,124.375 275.7607,124.5313 Q276.417,124.6875 276.9795,124.9844 L276.9795,127.7031 Q276.3545,127.125 275.7607,126.8594 Q275.167,126.5781 274.542,126.5781 Q273.1982,126.5781 272.5107,127.6563 Q271.8232,128.7188 271.8232,130.8125 Q271.8232,132.9063 272.5107,133.9844 Q273.1982,135.0469 274.542,135.0469 Q275.167,135.0469 275.7607,134.7813 Q276.3545,134.5 276.9795,133.9219 L276.9795,136.6406 Z " fill="#000000"/><text fill="#000000" font-family="sans-serif" font-size="14" lengthAdjust="spacing" textLength="49.7418" x="294.5107" y="136.432">Class01</text><line style="stroke:#181818;stroke-width:0.5;" x1="204.5" x2="401.7633" y1="147" y2="147"/><text fill="#000000" font-family="sans-serif" font-size="14" lengthAdjust="spacing" textLength="36.5538" x="209.5" y="165.9659">field1</text><text fill="#000000" font-family="sans-serif" font-size="14" lengthAdjust="spacing" textLength="82.3617" x="209.5" y="185.0339">field2: string</text><line style="stroke:#181818;stroke-width:0.5;" x1="204.5" x2="401.7633" y1="193.1358" y2="193.1358"/><text fill="#000000" font-family="sans-serif" font-size="14" lengthAdjust="spacing" textLength="68.1797" x="209.5" y="212.1018">method1()</text><text fill="#000000" font-family="sans-serif" font-size="14" lengthAdjust="spacing" textLength="187.2633" x="209.5" y="231.1697">method2(a: int, b: int): string</text></g><!--class Interface01--><g class="entity" data-entity="Interface01" data-source-line="8" data-uid="ent0003" id="entity_Interface01"><rect fill="#F1F1F1" height="48" rx="2.5" ry="2.5" style="stroke:#181818;stroke-width:0.5;" width="103.0077" x="251.5" y="7"/><ellipse cx="266.5" cy="23" fill="#B4A7E5" rx="11" ry="11" style="stroke:#181818;stroke-width:1;"/><path d="M262.4219,18.7656 L262.4219,16.6094 L269.8125,16.6094 L269.8125,18.7656 L267.3438,18.7656 L267.3438,26.8438 L269.8125,26.8438 L269.8125,29 L262.4219,29 L262.4219,26.8438 L264.8906,26.8438 L264.8906,18.7656 L262.4219,18.7656 Z " fill="#000000"/><text fill="#000000" font-family="sans-serif" font-size="14" font-style="italic" lengthAdjust="spacing" textLength="71.0077" x="280.5" y="28.432">Interface01</text><line style="stroke:#181818;stroke-width:0.5;" x1="252.5" x2="353.5077" y1="39" y2="39"/><line style="stroke:#181818;stroke-width:0.5;" x1="252.5" x2="353.5077" y1="47" y2="47"/></g><!--class Class02--><g class="entity" data-entity="Class02" data-source-line="10" data-uid="ent0005" id="entity_Class02"><rect fill="#F1F1F1" height="48" rx="2.5" ry="2.5" style="stroke:#181818;stroke-width:0.5;" width="81.7418" x="87" y="299"/><ellipse cx="102" cy="315" fill="#ADD1B2" rx="11" ry="11" style="stroke:#181818;stroke-width:1;"/><path d="M104.9688,320.6406 Q104.3906,320.9375 103.75,321.0781 Q103.1094,321.2344 102.4063,321.2344 Q99.9063,321.2344 98.5781,319.5938 Q97.2656,317.9375 97.2656,314.8125 Q97.2656,311.6875 98.5781,310.0313 Q99.9063,308.375 102.4063,308.375 Q103.1094,308.375 103.75,308.5313 Q104.4063,308.6875 104.9688,308.9844 L104.9688,311.7031 Q104.3438,311.125 103.75,310.8594 Q103.1563,310.5781 102.5313,310.5781 Q101.1875,310.5781 100.5,311.6563 Q99.8125,312.7188 99.8125,314.8125 Q99.8125,316.9063 100.5,317.9844 Q101.1875,319.0469 102.5313,319.0469 Q103.1563,319.0469 103.75,318.7813 Q104.3438,318.5 104.9688,317.9219 L104.9688,320.6406 Z " fill="#000000"/><text fill="#000000" font-family="sans-serif" font-size="14" lengthAdjust="spacing" textLength="49.7418" x="116" y="320.432">Class02</text><line style="stroke:#181818;stroke-width:0.5;" x1="88" x2="167.7418" y1="331" y2="331"/><line style="stroke:#181818;stroke-width:0.5;" x1="88" x2="167.7418" y1="339" y2="339"/></g><!--class Class03--><g class="entity" data-entity="Class03" data-source-line="11" data-uid="ent0007" id="entity_Class03"><rect fill="#F1F1F1" height="48" rx="2.5" ry="2.5" style="stroke:#181818;stroke-width:0.5;" width="81.7418" x="204" y="299"/><ellipse cx="219" cy="315" fill="#ADD1B2" rx="11" ry="11" style="stroke:#181818;stroke-width:1;"/><path d="M221.9688,320.6406 Q221.3906,320.9375 220.75,321.0781 Q220.1094,321.2344 219.4063,321.2344 Q216.9063,321.2344 215.5781,319.5938 Q214.2656,317.9375 214.2656,314.8125 Q214.2656,311.6875 215.5781,310.0313 Q216.9063,308.375 219.4063,308.375 Q220.1094,308.375 220.75,308.5313 Q221.4063,308.6875 221.9688,308.9844 L221.9688,311.7031 Q221.3438,311.125 220.75,310.8594 Q220.1563,310.5781 219.5313,310.5781 Q218.1875,310.5781 217.5,311.6563 Q216.8125,312.7188 216.8125,314.8125 Q216.8125,316.9063 217.5,317.9844 Q218.1875,319.0469 219.5313,319.0469 Q220.1563,319.0469 220.75,318.7813 Q221.3438,318.5 221.9688,317.9219 L221.9688,320.6406 Z " fill="#000000"/><text fill="#000000" font-family="sans-serif" font-size="14" lengthAdjust="spacing" textLength="49.7418" x="233" y="320.432">Class03</text><line style="stroke:#181818;stroke-width:0.5;" x1="205" x2="284.7418" y1="331" y2="331"/><line style="stroke:#181818;stroke-width:0.5;" x1="205" x2="284.7418" y1="339" y2="339"/></g><!--class Class04--><g class="entity" data-entity="Class04" data-source-line="12" data-uid="ent0009" id="entity_Class04"><rect fill="#F1F1F1" height="48" rx="2.5" ry="2.5" style="stroke:#181818;stroke-width:0.5;" width="81.7418" x="321" y="299"/><ellipse cx="336" cy="315" fill="#ADD1B2" rx="11" ry="11" style="stroke:#181818;stroke-width:1;"/><path d="M338.9688,320.6406 Q338.3906,320.9375 337.75,321.0781 Q337.1094,321.2344 336.4063,321.2344 Q333.9063,321.2344 332.5781,319.5938 Q331.2656,317.9375 331.2656,314.8125 Q331.2656,311.6875 332.5781,310.0313 Q333.9063,308.375 336.4063,308.375 Q337.1094,308.375 337.75,308.5313 Q338.4063,308.6875 338.9688,308.9844 L338.9688,311.7031 Q338.3438,311.125 337.75,310.8594 Q337.1563,310.5781 336.5313,310.5781 Q335.1875,310.5781 334.5,311.6563 Q333.8125,312.7188 333.8125,314.8125 Q333.8125,316.9063 334.5,317.9844 Q335.1875,319.0469 336.5313,319.0469 Q337.1563,319.0469 337.75,318.7813 Q338.3438,318.5 338.9688,317.9219 L338.9688,320.6406 Z " fill="#000000"/><text fill="#000000" font-family="sans-serif" font-size="14" lengthAdjust="spacing" textLength="49.7418" x="350" y="320.432">Class04</text><line style="stroke:#181818;stroke-width:0.5;" x1="322" x2="401.7418" y1="331" y2="331"/><line style="stroke:#181818;stroke-width:0.5;" x1="322" x2="401.7418" y1="339" y2="339"/></g><!--class Class05--><g class="entity" data-entity="Class05" data-source-line="13" data-uid="ent0011" id="entity_Class05"><rect fill="#F1F1F1" height="48" rx="2.5" ry="2.5" style="stroke:#181818;stroke-width:0.5;" width="81.7418" x="438" y="299"/><ellipse cx="453" cy="315" fill="#ADD1B2" rx="11" ry="11" style="stroke:#181818;stroke-width:1;"/><path d="M455.9688,320.6406 Q455.3906,320.9375 454.75,321.0781 Q454.1094,321.2344 453.4063,321.2344 Q450.9063,321.2344 449.5781,319.5938 Q448.2656,317.9375 448.2656,314.8125 Q448.2656,311.6875 449.5781,310.0313 Q450.9063,308.375 453.4063,308.375 Q454.1094,308.375 454.75,308.5313 Q455.4063,308.6875 455.9688,308.9844 L455.9688,311.7031 Q455.3438,311.125 454.75,310.8594 Q454.1563,310.5781 453.5313,310.5781 Q452.1875,310.5781 451.5,311.6563 Q450.8125,312.7188 450.8125,314.8125 Q450.8125,316.9063 451.5,317.9844 Q452.1875,319.0469 453.5313,319.0469 Q454.1563,319.0469 454.75,318.7813 Q455.3438,318.5 455.9688,317.9219 L455.9688,320.6406 Z " fill="#000000"/><text fill="#000000" font-family="sans-serif" font-size="14" lengthAdjust="spacing" textLength="49.7418" x="467" y="320.432">Class05</text><line style="stroke:#181818;stroke-width:0.5;" x1="439" x2="518.7418" y1="331" y2="331"/><line style="stroke:#181818;stroke-width:0.5;" x1="439" x2="518.7418" y1="339" y2="339"/></g><g class="entity" data-entity="Note01" data-source-line="14" data-uid="ent0013" id="entity_Note01"><path d="M389.5,17 L389.5,44.706 L528.4361,44.706 L528.4361,27 L518.4361,17 L389.5,17" fill="#FEFFDD" style="stroke:#181818;stroke-width:0.5;"/><path d="M518.4361,17 L518.4361,27 L528.4361,27 L518.4361,17" fill="#FEFFDD" style="stroke:#181818;stroke-width:1;"/><text fill="#000000" font-family="sans-serif" font-size="13" lengthAdjust="spacing" textLength="117.9361" x="395.5" y="35.897">A free floating note</text></g><g class="entity" data-entity="GMN14" data-source-line="15" data-uid="ent0015" id="entity_GMN14"><path d="M6,17 L6,44.706 A0,0 0 0 0 6,44.706 L215.7082,44.706 A0,0 0 0 0 215.7082,44.706 L215.7082,35 L251.23,31 L215.7082,27 L215.7082,27 L205.7082,17 L6,17 A0,0 0 0 0 6,17" fill="#FEFFDD" style="stroke:#181818;stroke-width:0.5;"/><path d="M205.7082,17 L205.7082,27 L215.7082,27 L205.7082,17" fill="#FEFFDD" style="stroke:#181818;stroke-width:0.5;"/><text fill="#000000" font-family="sans-serif" font-size="13" lengthAdjust="spacing" textLength="188.7082" x="12" y="35.897">A note attached to an interface</text></g><!--reverse link Interface01 to Class01--><g class="link" data-entity-1="Interface01" data-entity-2="Class01" data-source-line="9" data-uid="lnk4" id="link_Interface01_Class01"><path codeLine="9" d="M303,73.14 C303,89.28 303,93.62 303,114.7" fill="none" id="Interface01-backto-Class01" style="stroke:#181818;stroke-width:1;"/><polygon fill="none" points="303,55.14,297,73.14,309,73.14,303,55.14" style="stroke:#181818;stroke-width:1;"/></g><!--link Class01 to Class02--><g class="link" data-entity-1="Class01" data-entity-2="Class02" data-source-line="10" data-uid="lnk6" id="link_Class01_Class02"><path codeLine="10" d="M228.78,239.07 C203.07,260.23 180.4224,278.8567 160.7424,295.0567" fill="none" id="Class01-to-Class02" style="stroke:#181818;stroke-width:1;"/><polygon fill="#181818" points="156.11,298.87,165.6008,296.2384,159.9703,295.6923,160.5164,290.0619,156.11,298.87" style="stroke:#181818;stroke-width:1;"/></g><!--reverse link Class01 to Class03--><g class="link" data-entity-1="Class01" data-entity-2="Class03" data-source-line="11" data-uid="lnk8" id="link_Class01_Class03"><path codeLine="11" d="M273.9179,250.2015 C265.3979,271.3615 260.84,282.67 254.32,298.87" fill="none" id="Class01-backto-Class03" style="stroke:#181818;stroke-width:1;"/><polygon fill="#181818" points="278.4,239.07,272.4485,243.1417,273.9179,250.2015,279.8695,246.1298,278.4,239.07" style="stroke:#181818;stroke-width:1;"/></g><!--reverse link Class01 to Class04--><g class="link" data-entity-1="Class01" data-entity-2="Class04" data-source-line="12" data-uid="lnk10" id="link_Class01_Class04"><path codeLine="12" d="M332.5697,250.1741 C341.2397,271.3341 345.89,282.67 352.52,298.87" fill="none" id="Class01-backto-Class04" style="stroke:#181818;stroke-width:1;"/><polygon fill="none" points="328.02,239.07,326.5935,246.1386,332.5697,250.1741,333.9962,243.1055,328.02,239.07" style="stroke:#181818;stroke-width:1;"/></g><!--link Class01 to Class05--><g class="link" data-entity-1="Class01" data-entity-2="Class05" data-source-line="13" data-uid="lnk12" id="link_Class01_Class05"><path codeLine="13" d="M377.64,239.07 C403.5,260.23 430.93,282.67 450.73,298.87" fill="none" id="Class01-Class05" style="stroke:#181818;stroke-width:1;stroke-dasharray:7.0,7.0;"/></g><!--SRC=[JO_D3e8m48JlVOgHYpyH8gWNOao89o-UV84Lja82RKBtfhwxXKYbsRIpNsRJsINkTUFWYr3QhcCZ2rMsv1mkmxrByLBmHpVSLkbVPZcSz8rvZgXZgMsLhjQpBbjHZiR85e_nNOU9Z_8jzvfAndLIkrJDD4xlE9uYg2bA79z_B0ji4tpxm6nWXy2Iv8UEobXXH0LqpmpTMXAV2WEDG0utB_odewjbBR1w7ZD7CNf18bJMN44io23iz0K0]--></g></svg>