<svg xmlns="http://www.w3.org/2000/svg" xmlns:xlink="http://www.w3.org/1999/xlink" contentStyleType="text/css" data-diagram-type="DESCRIPTION" height="314px" preserveAspectRatio="none" style="width:569px;height:314px;background:#FFFFFF;" version="1.1" viewBox="0 0 569 314" width="569px" zoomAndPan="magnify"><defs/><g><!--cluster Component03--><g class="cluster" data-entity="Component03" data-source-line="3" data-uid="ent0004" id="cluster_Component03"><rect fill="none" height="119" rx="2.5" ry="2.5" style="stroke:#181818;stroke-width:1;" width="386" x="177" y="189"/><rect fill="none" height="10" style="stroke:#181818;stroke-width:1;" width="15" x="543" y="194"/><rect fill="none" height="2" style="stroke:#181818;stroke-width:1;" width="4" x="541" y="196"/><rect fill="none" height="2" style="stroke:#181818;stroke-width:1;" width="4" x="541" y="200"/><text fill="#000000" font-family="sans-serif" font-size="14" font-weight="bold" lengthAdjust="spacing" textLength="97.6216" x="321.1892" y="216.9659">Component03</text></g><!--entity Component031--><g class="entity" data-entity="Component031" data-source-line="4" data-uid="ent0005" id="entity_Component031"><rect fill="#F1F1F1" height="49.0679" rx="2.5" ry="2.5" style="stroke:#181818;stroke-width:0.5;" width="141.7656" x="397" y="235"/><rect fill="#F1F1F1" height="10" style="stroke:#181818;stroke-width:0.5;" width="15" x="518.7656" y="240"/><rect fill="#F1F1F1" height="2" style="stroke:#181818;stroke-width:0.5;" width="4" x="516.7656" y="242"/><rect fill="#F1F1F1" height="2" style="stroke:#181818;stroke-width:0.5;" width="4" x="516.7656" y="246"/><text fill="#000000" font-family="sans-serif" font-size="14" lengthAdjust="spacing" textLength="101.7656" x="412" y="269.9659">Component031</text></g><!--entity Component032--><g class="entity" data-entity="Component032" data-source-line="5" data-uid="ent0006" id="entity_Component032"><rect fill="#F1F1F1" height="49.0679" rx="2.5" ry="2.5" style="stroke:#181818;stroke-width:0.5;" width="141.7656" x="220" y="235"/><rect fill="#F1F1F1" height="10" style="stroke:#181818;stroke-width:0.5;" width="15" x="341.7656" y="240"/><rect fill="#F1F1F1" height="2" style="stroke:#181818;stroke-width:0.5;" width="4" x="339.7656" y="242"/><rect fill="#F1F1F1" height="2" style="stroke:#181818;stroke-width:0.5;" width="4" x="339.7656" y="246"/><text fill="#000000" font-family="sans-serif" font-size="14" lengthAdjust="spacing" textLength="101.7656" x="235" y="269.9659">Component032</text></g><!--entity Component01--><g class="entity" data-entity="Component01" data-source-line="1" data-uid="ent0002" id="entity_Component01"><rect fill="#F1F1F1" height="49.0679" rx="2.5" ry="2.5" style="stroke:#181818;stroke-width:0.5;" width="133.7576" x="118" y="116"/><rect fill="#F1F1F1" height="10" style="stroke:#181818;stroke-width:0.5;" width="15" x="231.7576" y="121"/><rect fill="#F1F1F1" height="2" style="stroke:#181818;stroke-width:0.5;" width="4" x="229.7576" y="123"/><rect fill="#F1F1F1" height="2" style="stroke:#181818;stroke-width:0.5;" width="4" x="229.7576" y="127"/><text fill="#000000" font-family="sans-serif" font-size="14" lengthAdjust="spacing" textLength="93.7576" x="133" y="150.9659">Component01</text></g><!--entity Component02--><g class="entity" data-entity="Component02" data-source-line="2" data-uid="ent0003" id="entity_Component02"><rect fill="#F1F1F1" height="49.0679" rx="2.5" ry="2.5" style="stroke:#181818;stroke-width:0.5;" width="133.7576" x="7" y="7"/><rect fill="#F1F1F1" height="10" style="stroke:#181818;stroke-width:0.5;" width="15" x="120.7576" y="12"/><rect fill="#F1F1F1" height="2" style="stroke:#181818;stroke-width:0.5;" width="4" x="118.7576" y="14"/><rect fill="#F1F1F1" height="2" style="stroke:#181818;stroke-width:0.5;" width="4" x="118.7576" y="18"/><text fill="#000000" font-family="sans-serif" font-size="14" lengthAdjust="spacing" textLength="93.7576" x="22" y="41.9659">Component02</text></g><!--entity Interface01--><g class="entity" data-entity="Interface01" data-source-line="7" data-uid="ent0007" id="entity_Interface01"><ellipse cx="74" cy="140.5" fill="#F1F1F1" rx="8" ry="8" style="stroke:#181818;stroke-width:0.5;"/><text fill="#000000" font-family="sans-serif" font-size="14" lengthAdjust="spacing" textLength="75.4317" x="36.2841" y="172.4659">Interface01</text></g><!--link Interface01 to Component01--><g class="link" data-entity-1="Interface01" data-entity-2="Component01" data-source-line="8" data-uid="lnk8" id="link_Interface01_Component01"><path d="M83.11,140.5 C94.65,140.5 106.19,140.5 117.73,140.5" fill="none" id="Interface01-Component01" style="stroke:#181818;stroke-width:1;"/></g><!--link Component01 to Component03--><g class="link" data-entity-1="Component01" data-entity-2="Component03" data-source-line="9" data-uid="lnk9" id="link_Component01_Component03"><path d="M185,165.18 C185,169.3863 185,173.9703 185,178.7755 C185,181.1781 185,183.636 185,186.1296 C185,186.753 185,187.3787 185,188.0062 C185,188.32 185,182.6343 185,182.949" fill="none" id="Component01-to-Component03" style="stroke:#181818;stroke-width:1;"/><polygon fill="#181818" points="185,188.949,189,179.949,185,183.949,181,179.949,185,188.949" style="stroke:#181818;stroke-width:1;"/></g><!--link Component02 to Interface01--><g class="link" data-entity-1="Component02" data-entity-2="Interface01" data-source-line="10" data-uid="lnk10" id="link_Component02_Interface01"><path d="M74,56.25 C74,80.14 74,109.63 74,125.42" fill="none" id="Component02-to-Interface01" style="stroke:#181818;stroke-width:1;stroke-dasharray:7.0,7.0;"/><polygon fill="#181818" points="74,131.42,78,122.42,74,126.42,70,122.42,74,131.42" style="stroke:#181818;stroke-width:1;"/></g><!--SRC=[IyxFBSZFIyqhKN26iGmCkPAnY1fX5JLMgEPI00AiSeQufOouQhaoyqfIYz8IarCLF64ieDr8R0LT55SXiHLqTUsGZKEICrBGqxD3DX40]--></g></svg>