<svg xmlns="http://www.w3.org/2000/svg" xmlns:xlink="http://www.w3.org/1999/xlink" contentStyleType="text/css" data-diagram-type="CLASS" height="181px" preserveAspectRatio="none" style="width:517px;height:181px;background:#FFFFFF;" version="1.1" viewBox="0 0 517 181" width="517px" zoomAndPan="magnify"><defs/><g><g class="entity" data-entity="Object01" data-source-line="1" data-uid="ent0002" id="entity_Object01"><rect fill="#F1F1F1" height="69.2038" rx="2.5" ry="2.5" style="stroke:#181818;stroke-width:0.5;" width="128.3955" x="195.5" y="7"/><text fill="#000000" font-family="sans-serif" font-size="14" lengthAdjust="spacing" textLength="58.8418" x="230.2769" y="23.9659">Object01</text><line style="stroke:#181818;stroke-width:0.5;" x1="196.5" x2="322.8955" y1="30.0679" y2="30.0679"/><text fill="#000000" font-family="sans-serif" font-size="14" lengthAdjust="spacing" textLength="51.5338" x="201.5" y="49.0339">id = 123</text><text fill="#000000" font-family="sans-serif" font-size="14" lengthAdjust="spacing" textLength="116.3955" x="201.5" y="68.1018">name = "Dummy"</text></g><g class="entity" data-entity="Object02" data-source-line="5" data-uid="ent0003" id="entity_Object02"><rect fill="#F1F1F1" height="39.0679" rx="2.5" ry="2.5" style="stroke:#181818;stroke-width:0.5;" width="72.8418" x="7" y="136"/><text fill="#000000" font-family="sans-serif" font-size="14" lengthAdjust="spacing" textLength="58.8418" x="14" y="152.9659">Object02</text><line style="stroke:#181818;stroke-width:0.5;" x1="8" x2="78.8418" y1="159.0679" y2="159.0679"/></g><g class="entity" data-entity="Object03" data-source-line="6" data-uid="ent0004" id="entity_Object03"><rect fill="#F1F1F1" height="39.0679" rx="2.5" ry="2.5" style="stroke:#181818;stroke-width:0.5;" width="72.8418" x="115" y="136"/><text fill="#000000" font-family="sans-serif" font-size="14" lengthAdjust="spacing" textLength="58.8418" x="122" y="152.9659">Object03</text><line style="stroke:#181818;stroke-width:0.5;" x1="116" x2="186.8418" y1="159.0679" y2="159.0679"/></g><g class="entity" data-entity="Object04" data-source-line="7" data-uid="ent0005" id="entity_Object04"><rect fill="#F1F1F1" height="39.0679" rx="2.5" ry="2.5" style="stroke:#181818;stroke-width:0.5;" width="72.8418" x="223" y="136"/><text fill="#000000" font-family="sans-serif" font-size="14" lengthAdjust="spacing" textLength="58.8418" x="230" y="152.9659">Object04</text><line style="stroke:#181818;stroke-width:0.5;" x1="224" x2="294.8418" y1="159.0679" y2="159.0679"/></g><g class="entity" data-entity="Object05" data-source-line="8" data-uid="ent0006" id="entity_Object05"><rect fill="#F1F1F1" height="39.0679" rx="2.5" ry="2.5" style="stroke:#181818;stroke-width:0.5;" width="72.8418" x="331" y="136"/><text fill="#000000" font-family="sans-serif" font-size="14" lengthAdjust="spacing" textLength="58.8418" x="338" y="152.9659">Object05</text><line style="stroke:#181818;stroke-width:0.5;" x1="332" x2="402.8418" y1="159.0679" y2="159.0679"/></g><g class="entity" data-entity="Object06" data-source-line="9" data-uid="ent0007" id="entity_Object06"><rect fill="#F1F1F1" height="39.0679" rx="2.5" ry="2.5" style="stroke:#181818;stroke-width:0.5;" width="72.8418" x="439" y="136"/><text fill="#000000" font-family="sans-serif" font-size="14" lengthAdjust="spacing" textLength="58.8418" x="446" y="152.9659">Object06</text><line style="stroke:#181818;stroke-width:0.5;" x1="440" x2="510.8418" y1="159.0679" y2="159.0679"/></g><g class="entity" data-entity="N1" data-source-line="15" data-uid="ent0013" id="entity_N1"><path d="M359,27.5 L359,55.206 L428.022,55.206 L428.022,37.5 L418.022,27.5 L359,27.5" fill="#FEFFDD" style="stroke:#181818;stroke-width:0.5;"/><path d="M418.022,27.5 L418.022,37.5 L428.022,37.5 L418.022,27.5" fill="#FEFFDD" style="stroke:#181818;stroke-width:1;"/><text fill="#000000" font-family="sans-serif" font-size="13" lengthAdjust="spacing" textLength="29.77" x="365" y="46.397">Note</text><text fill="#000000" font-family="sans-serif" font-size="13" font-weight="bold" lengthAdjust="spacing" textLength="7.436" x="398.15" y="46.397">0</text><text fill="#000000" font-family="sans-serif" font-size="13" lengthAdjust="spacing" text-decoration="underline" textLength="7.436" x="405.586" y="46.397">1</text></g><g class="entity" data-entity="GMN14" data-source-line="16" data-uid="ent0015" id="entity_GMN14"><path d="M91,27.5 L91,55.206 A0,0 0 0 0 91,55.206 L160.022,55.206 A0,0 0 0 0 160.022,55.206 L160.022,45.5 L195.4,41.5 L160.022,37.5 L160.022,37.5 L150.022,27.5 L91,27.5 A0,0 0 0 0 91,27.5" fill="#FEFFDD" style="stroke:#181818;stroke-width:0.5;"/><path d="M150.022,27.5 L150.022,37.5 L160.022,37.5 L150.022,27.5" fill="#FEFFDD" style="stroke:#181818;stroke-width:0.5;"/><text fill="#000000" font-family="sans-serif" font-size="13" lengthAdjust="spacing" textLength="48.022" x="97" y="46.397">Note 02</text></g><!--reverse link Object01 to Object02--><g class="link" data-entity-1="Object01" data-entity-2="Object02" data-source-line="10" data-uid="lnk8" id="link_Object01_Object02"><path codeLine="10" d="M179.3009,84.0866 C141.3709,103.7566 110.75,119.63 79.27,135.95" fill="none" id="Object01-backto-Object02" style="stroke:#181818;stroke-width:1;"/><polygon fill="none" points="195.28,75.8,176.5387,78.7602,182.0631,89.4129,195.28,75.8" style="stroke:#181818;stroke-width:1;"/></g><!--link Object01 to Object03--><g class="link" data-entity-1="Object01" data-entity-2="Object03" data-source-line="11" data-uid="lnk9" id="link_Object01_Object03"><path codeLine="11" d="M227.1,76.1 C208.21,95.69 185.1,119.66 169.44,135.9" fill="none" id="Object01-Object03" style="stroke:#181818;stroke-width:1;"/></g><!--reverse link Object01 to Object04--><g class="link" data-entity-1="Object01" data-entity-2="Object04" data-source-line="12" data-uid="lnk10" id="link_Object01_Object04"><path codeLine="12" d="M259.5,88.1 C259.5,107.69 259.5,119.66 259.5,135.9" fill="none" id="Object01-backto-Object04" style="stroke:#181818;stroke-width:1;"/><polygon fill="#181818" points="259.5,76.1,255.5,82.1,259.5,88.1,263.5,82.1,259.5,76.1" style="stroke:#181818;stroke-width:1;"/></g><!--reverse link Object01 to Object05--><g class="link" data-entity-1="Object01" data-entity-2="Object05" data-source-line="13" data-uid="lnk11" id="link_Object01_Object05"><path codeLine="13" d="M300.2295,84.7382 C319.1195,104.3282 333.9,119.66 349.56,135.9" fill="none" id="Object01-backto-Object05" style="stroke:#181818;stroke-width:1;"/><polygon fill="none" points="291.9,76.1,293.1854,83.1956,300.2295,84.7382,298.9442,77.6426,291.9,76.1" style="stroke:#181818;stroke-width:1;"/></g><!--link Object01 to Object06--><g class="link" data-entity-1="Object01" data-entity-2="Object06" data-source-line="14" data-uid="lnk12" id="link_Object01_Object06"><path codeLine="14" d="M323.72,75.8 C361.65,95.47 408.25,119.63 439.73,135.95" fill="none" id="Object01-Object06" style="stroke:#181818;stroke-width:1;stroke-dasharray:7.0,7.0;"/></g><!--SRC=[oq_AIaqkKV07KmQ62jLS2a2GcQ9Wgs1eP0pcv2NcfWAvIYwbkRcLIborNFaeUepG-CPeV1CqlYaQtumBRhbDZQukmbYuC4BG626eXH0rGOZc8qHD4Q9wUWZByl9BKXMK_42aJPATWOr-afrDgPsXZNwfdP92Oh62do54IKvgMeb2VXeyPAmKm7eCZ000]--></g></svg>