<svg xmlns="http://www.w3.org/2000/svg" xmlns:xlink="http://www.w3.org/1999/xlink" contentStyleType="text/css" data-diagram-type="STATE" height="113px" preserveAspectRatio="none" style="width:480px;height:113px;background:#FFFFFF;" version="1.1" viewBox="0 0 480 113" width="480px" zoomAndPan="magnify"><defs/><g><ellipse cx="16" cy="82.5" fill="#222222" rx="10" ry="10" style="stroke:#222222;stroke-width:1;"/><g id="State1"><rect fill="#F1F1F1" height="50" rx="12.5" ry="12.5" style="stroke:#181818;stroke-width:0.5;" width="61.5518" x="61" y="57.5"/><line style="stroke:#181818;stroke-width:0.5;" x1="61" x2="122.5518" y1="86.5679" y2="86.5679"/><text fill="#000000" font-family="sans-serif" font-size="14" lengthAdjust="spacing" textLength="41.5518" x="71" y="77.4659">State1</text></g><g id="State2"><rect fill="#F1F1F1" height="50" rx="12.5" ry="12.5" style="stroke:#181818;stroke-width:0.5;" width="61.5518" x="208" y="57.5"/><line style="stroke:#181818;stroke-width:0.5;" x1="208" x2="269.5518" y1="86.5679" y2="86.5679"/><text fill="#000000" font-family="sans-serif" font-size="14" lengthAdjust="spacing" textLength="41.5518" x="218" y="77.4659">State2</text></g><g id="State3"><rect fill="#F1F1F1" height="50" rx="12.5" ry="12.5" style="stroke:#181818;stroke-width:0.5;" width="61.5518" x="355" y="57.5"/><line style="stroke:#181818;stroke-width:0.5;" x1="355" x2="416.5518" y1="86.5679" y2="86.5679"/><text fill="#000000" font-family="sans-serif" font-size="14" lengthAdjust="spacing" textLength="41.5518" x="365" y="77.4659">State3</text></g><ellipse cx="463" cy="82.5" fill="none" rx="11" ry="11" style="stroke:#222222;stroke-width:1;"/><ellipse cx="463" cy="82.5" fill="#222222" rx="6" ry="6" style="stroke:#222222;stroke-width:1;"/><!--link *start* to State1--><g class="link" data-entity-1="*start*" data-entity-2="State1" data-source-line="4" data-uid="lnk4" id="link_*start*_State1"><path d="M26.09,82.5 C37.68,82.5 43.26,82.5 54.85,82.5" fill="none" id="*start*-to-State1" style="stroke:#181818;stroke-width:1;"/><polygon fill="#181818" points="60.85,82.5,51.85,78.5,55.85,82.5,51.85,86.5,60.85,82.5" style="stroke:#181818;stroke-width:1;"/></g><!--link State1 to State2--><g class="link" data-entity-1="State1" data-entity-2="State2" data-source-line="5" data-uid="lnk6" id="link_State1_State2"><path d="M123.17,82.5 C148.12,82.5 176.94,82.5 201.87,82.5" fill="none" id="State1-to-State2" style="stroke:#181818;stroke-width:1;"/><polygon fill="#181818" points="207.87,82.5,198.87,78.5,202.87,82.5,198.87,86.5,207.87,82.5" style="stroke:#181818;stroke-width:1;"/><text fill="#000000" font-family="sans-serif" font-size="13" lengthAdjust="spacing" textLength="48.763" x="141.5" y="75.397">Event01</text></g><!--link State2 to State3--><g class="link" data-entity-1="State2" data-entity-2="State3" data-source-line="6" data-uid="lnk8" id="link_State2_State3"><path d="M270.17,82.5 C295.12,82.5 323.94,82.5 348.87,82.5" fill="none" id="State2-to-State3" style="stroke:#181818;stroke-width:1;"/><polygon fill="#181818" points="354.87,82.5,345.87,78.5,349.87,82.5,345.87,86.5,354.87,82.5" style="stroke:#181818;stroke-width:1;"/><text fill="#000000" font-family="sans-serif" font-size="13" lengthAdjust="spacing" textLength="48.763" x="288.5" y="75.397">Event02</text></g><!--link State3 to State1--><g class="link" data-entity-1="State3" data-entity-2="State1" data-source-line="7" data-uid="lnk9" id="link_State3_State1"><path d="M354.59,60.56 C330.91,45.43 296.98,26.62 264,18.5 C213.26,6 161.9151,32.4114 127.9851,55.4314" fill="none" id="State3-to-State1" style="stroke:#181818;stroke-width:1;"/><polygon fill="#181818" points="123.02,58.8,132.7134,57.0572,127.1576,55.9928,128.2219,50.437,123.02,58.8" style="stroke:#181818;stroke-width:1;"/><text fill="#000000" font-family="sans-serif" font-size="13" lengthAdjust="spacing" textLength="48.763" x="215" y="23.397">Event03</text></g><!--link State3 to *end*--><g class="link" data-entity-1="State3" data-entity-2="*end*" data-source-line="8" data-uid="lnk11" id="link_State3_*end*"><path d="M417.28,82.5 C428.83,82.5 434.38,82.5 445.93,82.5" fill="none" id="State3-to-*end*" style="stroke:#181818;stroke-width:1;"/><polygon fill="#181818" points="451.93,82.5,442.93,78.5,446.93,82.5,442.93,86.5,451.93,82.5" style="stroke:#181818;stroke-width:1;"/></g><!--SRC=[JOqn3i8m34NtdE9lbH11a6uPkd42s113QPms4eshO55nUr8e4PFb_vxzAvm7Whmc0dkqAV6C45teMg4793CN4dKIE6v1kzwg2ZxnY3jvWJ1Iw0Unq0tOKOB-xBhvQSBJOjrOXCUi5S_n7BDssLoNsvFaleFwZX8OM1oV56M_8bDGNP1HQr3U55J_eLpq1W00]--></g></svg>